<?xml version="1.0" standalone="no"?><!DOCTYPE svg PUBLIC "-//W3C//DTD SVG 1.1//EN" "http://www.w3.org/Graphics/SVG/1.1/DTD/svg11.dtd"><svg t="1549640502824" class="icon" style="" viewBox="0 0 1024 1024" version="1.1" xmlns="http://www.w3.org/2000/svg" p-id="13370" xmlns:xlink="http://www.w3.org/1999/xlink" width="200" height="200"><defs><style type="text/css"></style></defs><path d="M811.8 462.7c9.7 5.2 22 2.2 27.3-7.5 5.7-9.6 2.4-21.9-7.3-27.3-7.1-4.2-8.4-4.7-14.3-7.6l-17.3 36.5c5.7 2.7 4.2 1.9 11.6 5.9zM615.6 507.7c-9.7-7-21.4-10.5-34.8-10.5-10.1 0-19 2-26.9 5.9-7.8 4-14.4 9.7-19.9 17.2-5.6 7.5-9.7 16.6-12.6 27.2-2.9 10.7-4.3 22.4-4.3 35.1 0 12.6 1.4 24.2 4.2 34.9 2.8 10.7 6.8 20 12.3 27.8 5.3 7.4 12 13.3 20.1 17.5 8.1 4.2 17.2 6.3 27.5 6.3s19.3-2 27.4-6.1c8-4.1 14.7-10 20.1-17.7 5.5-7.7 9.7-16.8 12.3-27.3 2.7-10.6 4.2-22.4 4.2-35 0-17.4-2.4-32.5-7.5-45.5-4.9-12.9-12.3-22.8-22.1-29.8z m-2 108.2c-3.4 9-8 15.7-13.7 20-5.7 4.3-11.9 6.5-18.7 6.5-5.3 0-10.2-1.2-14.7-3.8-4.3-2.5-8.3-6.1-11.7-11.2-3.4-5-6.1-11.5-7.8-19-2-7.7-2.9-16.2-2.9-25.7 0-9.3 0.9-17.7 2.9-25.2 1.7-7.6 4.3-13.8 7.5-18.4 3.2-5.1 7-8.7 11.6-11.2 4.5-2.5 9.3-3.9 14.7-3.9 7.4 0 13.9 2.3 19.7 6.8 5.8 4.7 10.2 11.5 13.4 20.3 3 8.9 4.5 19.6 4.5 31.6 0 13-1.6 24.2-4.8 33.2zM487.7 599.1c-3.4 0-6.2 1.2-7.9 4.1-1.7 2.8-3.2 6.3-4.3 10.8-2.7 9.2-6.8 16.2-11.9 21.1-5.2 4.7-11.6 7.1-19.2 7.1-7.2 0-13.4-2.2-18.4-6.4-5.3-4.2-9.3-10.7-12.3-19.2-2.9-8.5-4.3-19.3-4.3-32.3 0-19.2 3.4-34.2 9.8-44.7 6.3-10.6 15-15.8 25.9-15.8 6.9 0 12.5 2 17.3 6.1 4.7 4 8.7 10.2 12.2 18.6 2.2 4.8 3.9 8.4 5.7 10.3 1.6 2.1 4.2 3.2 7.6 3.2 3 0 5.7-1.4 7.8-4.3 2-2.9 3.1-6.5 3.1-10.3 0-7-2.2-14.5-6.8-22.4-4.3-7.9-10.6-14.6-18.8-20-8.3-5.3-17.8-8-28.3-8-8.6 0-16.8 1.9-24.4 5.8-7.7 4-14.4 9.5-20.1 17.2-5.7 7.5-10 16.6-13 27.1-3 10.7-4.7 22.5-4.7 36 0 8.3 0.7 16 2 23.4 1.1 7.3 3 14.2 5.4 20.6 2.4 6.4 5.3 12.3 8.8 17.6 3.8 5.7 8 10.2 12.6 13.8 4.7 3.4 9.7 6.1 15.5 7.7 5.6 1.9 11.8 2.5 18.7 2.5 9.3 0 17.3-1.9 24.2-5.5 6.6-3.8 12.4-8.6 16.8-14.6 4.3-5.9 7.5-12 9.7-18.2 2-6 3-11.8 3-17.1 0-4.2-1-7.6-3.4-10.2-2.2-2.6-5-4-8.3-4zM788.6 450.7l16.5-35.4c-5.7-2.4-7-2.5-12.5-4.2L776 447.4c5.1 1 7.5 1.6 12.6 3.3z" p-id="13371" fill="#ffffff"></path><path d="M757.4 444.8c7.9 0.4 7.9 0.4 19.4 2.7l18.6-35.7c-14.2-4.2-17.5-5.1-27.6-6.1l-15.5 39c1.8 0 3.1 0 5.1 0.1z" p-id="13372" fill="#ffffff"></path><path d="M910.1 615.5c-11.1-2-21.6 5.2-23.8 16.1-14 72.2-74.2 124.9-143.4 124.9-7 0-13.1 0.2-19.2 0.3-5.5 0.2-11.1 0.3-16.8 0.3l-410.7-0.5c-0.7 0-1.5-0.1-2.1-0.1h-2.6l-20.1 0.1c-74.7-6-133.7-74-133.7-156.7 0-86.3 65.6-156.8 146.4-156.8 4.7 0 9.7 0.2 14.6 0.8l19.5 2.1 2.5-19.5c12-91.5 86.1-160.2 172.4-160.2 90.4 0 165.1 72.5 173.2 168.7l2.4 26.7 24.9-9.7c14.1-5.3 26-8.4 40.4-9l16.1-40c-2-0.1-4.5-0.2-7.4-0.3-13.3-0.4-26.6 1.4-39.6 4.4-8.9-46.6-31.4-89-64.8-121.3-39.7-38.7-91.3-60.1-145.4-60.1-100.5 0-187.5 74.7-209 176.9-100.7 0.1-182.8 84.5-186.5 189.7V607c1.6 49.7 20.3 96.2 52.9 131.5 34.9 37.8 81.5 58.6 131.5 58.6 1.1 0 4.5-0.3 7.4-0.4 1.6-0.1 2.7-0.1 3.8-0.1l413.6 0.5c6.1 0 12 0 17.8-0.3 5.8-0.2 11.7-0.2 18.1-0.2 88.6 0 165.5-66.2 183.3-157.6 2.3-10.8-4.9-21.3-15.7-23.5z" p-id="13373" fill="#ffffff"></path></svg>